<?xml version="1.0" encoding="utf-8"?>
<!-- Generator: Adobe Illustrator 24.2.3, SVG Export Plug-In . SVG Version: 6.00 Build 0)  -->
<svg version="1.1" id="Layer_1" xmlns="http://www.w3.org/2000/svg" xmlns:xlink="http://www.w3.org/1999/xlink" x="0px" y="0px"
	 viewBox="0 0 16 16" style="enable-background:new 0 0 16 16;" xml:space="preserve">
<style type="text/css">
	.teak-favicon{fill-rule:evenodd;clip-rule:evenodd;fill:#F15A24;}
</style>
<g>
	<g>
		<path class="teak-favicon" d="M0.1,7.6c0,3.3,2.9,4.8,3.7,5.1c0.1,0,0.2,0,0.3-0.1l2.2-1.9c0.1-0.1,0.1-0.1,0-0.2c-0.4-0.2-1.6-0.7-2.1-1.2
			C3.6,8.8,3.5,8.1,3.5,7.6h0l3.2-0.7c0.2-0.1,0.4-0.3,0.4-0.5V2.6c0-0.2-0.2-0.4-0.4-0.4H0.6c-0.2,0-0.4,0.2-0.4,0.4
			C0.1,3.1,0.1,6.8,0.1,7.6z"/>
	</g>
	<g>
		<path class="teak-favicon" d="M11.9,2.3l-1.8,1.5c-0.1,0.1-0.1,0.2,0,0.2c0.4,0.3,1.6,1.1,2.1,1.6C12.9,6.5,12.8,7,12.8,7L9.3,7.7
			C9,7.7,8.8,8,8.8,8.2v4.2c0,0.2,0.2,0.4,0.4,0.4h6.1c0.2,0,0.4-0.2,0.4-0.4c0-1.2,0-4.4,0-4.9c0-3.3-2.9-4.9-3.7-5.2
			C12.1,2.2,12,2.2,11.9,2.3z"/>
	</g>
</g>
</svg>
