<svg id="Layer_1" data-name="Layer 1" xmlns="http://www.w3.org/2000/svg" viewBox="0 0 148 43.07"><defs><style>.cls-1{fill:#f15a29;fill-rule:evenodd;}</style></defs><path class="cls-1" d="M49.64,19V30.13c0,13.47,12.09,19.37,15,20.62a1.26,1.26,0,0,0,1.18-.2l8.87-7.73a.39.39,0,0,0-.12-.72c-1.79-.73-6.74-2.88-8.52-5A11.73,11.73,0,0,1,63.66,30h.05l13-2.86a2.28,2.28,0,0,0,1.71-2.12V9.75A1.75,1.75,0,0,0,76.71,8H51.55a1.77,1.77,0,0,0-1.76,1.75C49.77,11.8,49.64,19,49.64,19Z" transform="translate(-8 -8)"/><path class="cls-1" d="M155.79,42.44l-9.9-8.95c4.31-2.88,9.26-7.82,9.94-15.55v-.51c0-.28-.31-.45-.69-.39l-10.88,2a1.28,1.28,0,0,0-.88.8,10.44,10.44,0,0,1-2.57,3.56,33.1,33.1,0,0,1-5.87,4.47l.45-19.15a.69.69,0,0,0-.69-.7H122.6a.7.7,0,0,0-.7.7V50.31a.71.71,0,0,0,.7.7h12.1a.68.68,0,0,0,.68-.7L135,38.15l11.12,12.69a.7.7,0,0,0,1,.06l8.66-7.54A.6.6,0,0,0,155.79,42.44Z" transform="translate(-8 -8)"/><path class="cls-1" d="M41.51,14.43,29.79,17.11l.06-8.41a.68.68,0,0,0-.69-.7H16.66a.7.7,0,0,0-.7.7V20.26L8.68,21.92a.91.91,0,0,0-.68.85v11.1a.54.54,0,0,0,.68.55l7.44-1.7c1.42,11.64,12.12,16.87,14.89,18a1.25,1.25,0,0,0,1.18-.2l8.87-7.73a.39.39,0,0,0-.12-.72c-1.78-.73-6.74-2.88-8.52-5A10.58,10.58,0,0,1,29.68,30v-.41L41.41,27a.93.93,0,0,0,.69-.86L42.18,15A.53.53,0,0,0,41.51,14.43Z" transform="translate(-8 -8)"/><path class="cls-1" d="M98.15,8.45l-7.33,6.21a.48.48,0,0,0,.06.82c1.72,1.08,6.67,4.28,8.46,6.39,3,3.56,2.39,5.7,2.39,5.7L87.28,30.32a2.2,2.2,0,0,0-1.72,2.08V49.26A1.75,1.75,0,0,0,87.31,51h25.15a1.78,1.78,0,0,0,1.77-1.75c0-4.8.15-17.93.15-19.85,0-13.48-12.11-19.79-15.06-21.14A1.23,1.23,0,0,0,98.15,8.45Z" transform="translate(-8 -8)"/></svg>